<?xml version="1.0" encoding="utf-8"?>
<!-- Generator: Adobe Illustrator 17.1.0, SVG Export Plug-In . SVG Version: 6.00 Build 0)  -->
<!DOCTYPE svg PUBLIC "-//W3C//DTD SVG 1.1//EN" "http://www.w3.org/Graphics/SVG/1.1/DTD/svg11.dtd">
<svg version="1.1" id="Layer_1" xmlns="http://www.w3.org/2000/svg" xmlns:xlink="http://www.w3.org/1999/xlink" x="0px" y="0px"
	 viewBox="0 0 27.125 27.125" enable-background="new 0 0 27.125 27.125" xml:space="preserve">
<rect fill="#FBB064" width="27.125" height="27.125"/>
<g>
	<path fill="#FCBE80" stroke="#FCBE80" stroke-miterlimit="10" d="M3.095,24.519c0.774,0.774,13.215,0.752,14.074,0.072
		s0.434-5.708,0.434-9.369c-0.071-0.672,1.107-2.941-0.44-4.488s-3.136-1.665-6.269-1.732c-3.16-0.067-6.897-0.418-8.004,1.474
		s0.016,3.741-0.121,4.895C2.257,19.694,2.32,23.745,3.095,24.519z"/>
	<path fill="none" stroke="#FCBE80" stroke-miterlimit="10" d="M9.29,18.324c0.774,0.774,13.215,0.752,14.074,0.072
		s0.434-5.708,0.434-9.369c-0.071-0.672,1.107-2.941-0.44-4.488c-1.547-1.547-3.136-1.665-6.269-1.732
		c-3.16-0.067-6.897-0.418-8.004,1.474s0.016,3.741-0.121,4.895C8.452,13.499,8.515,17.549,9.29,18.324z"/>
</g>
<rect y="5.375" fill="none" width="27.125" height="66.833"/>
<text transform="matrix(1 0 0 1 3.2122 20.7747)" fill="#383838" font-family="'Bitter-Regular'" font-size="20">W</text>
</svg>
