<?xml version="1.0" encoding="utf-8"?>
<!-- Generator: Adobe Illustrator 17.1.0, SVG Export Plug-In . SVG Version: 6.00 Build 0)  -->
<!DOCTYPE svg PUBLIC "-//W3C//DTD SVG 1.1//EN" "http://www.w3.org/Graphics/SVG/1.1/DTD/svg11.dtd">
<svg version="1.1" id="Layer_1" xmlns="http://www.w3.org/2000/svg" xmlns:xlink="http://www.w3.org/1999/xlink" x="0px" y="0px"
	 viewBox="0 0 54.375 55.625" enable-background="new 0 0 54.375 55.625" xml:space="preserve">
<path fill="none" stroke="#424242" stroke-width="2" stroke-miterlimit="10" d="M17.452,39.186c1.848,1.848,31.53,1.795,33.58,0.173
	c2.05-1.622,1.035-13.619,1.035-22.354c-0.17-1.603,2.641-7.017-1.051-10.709c-3.692-3.692-7.482-3.974-14.959-4.132
	c-7.54-0.16-16.455-0.997-19.098,3.516s0.038,8.927-0.288,11.68C15.452,27.675,15.604,37.339,17.452,39.186z"/>
<path fill="#424242" stroke="#424242" stroke-miterlimit="10" d="M2.669,52.969c1.848,1.848,31.53,1.795,33.58,0.173
	c2.05-1.622,1.035-13.619,1.035-22.354c-0.17-1.603,2.641-7.017-1.051-10.709c-3.692-3.692-7.482-3.974-14.959-4.132
	c-7.54-0.16-16.455-0.997-19.098,3.516s0.038,8.927-0.288,11.68C0.67,41.457,0.822,51.121,2.669,52.969z"/>
</svg>
